<svg width="350" height="350" viewBox="0 0 350 350" fill="none" xmlns="http://www.w3.org/2000/svg">
<g clip-path="url(#clip0_53_67)">
<path d="M207.477 331.839C204.244 331.839 200.975 331.412 197.777 330.56L78.6346 298.076C65.7006 294.593 55.4671 284.393 51.9848 271.385L19.5077 152.29C16.0254 139.282 19.7564 125.35 29.2437 115.826L115.873 29.1785C125.36 19.6893 139.325 15.9575 152.294 19.4405L271.437 51.9242C284.371 55.4072 294.604 65.6072 298.086 78.6149L330.564 197.71C334.046 210.718 330.315 224.65 320.827 234.174L234.198 320.821C227.056 327.965 217.355 331.839 207.477 331.839ZM142.558 32.4127C136.411 32.4127 130.371 34.8294 125.929 39.2719L39.2996 125.883C33.4011 131.783 31.0559 140.49 33.2234 148.594L65.7006 267.689C67.8681 275.828 74.264 282.189 82.33 284.357L201.472 316.841C209.503 319.009 218.208 316.663 224.142 310.764L310.736 224.152C316.635 218.217 318.98 209.545 316.812 201.442L284.335 82.3467C282.168 74.208 275.772 67.8463 267.706 65.6783L148.564 33.1946C146.574 32.6614 144.548 32.4127 142.523 32.4127H142.558Z" fill="#D31A71"/>
<path d="M323.35 222.197C323.35 222.197 323.066 222.197 322.959 222.197L134.563 211.678C130.797 211.464 127.848 208.337 127.848 204.569V26.6552C127.848 22.7457 131.046 19.5471 134.954 19.5471C138.863 19.5471 142.061 22.7457 142.061 26.6552V197.852L323.741 208.017C327.65 208.23 330.67 211.606 330.457 215.516C330.244 219.283 327.117 222.233 323.35 222.233V222.197Z" fill="#D31A71"/>
<path d="M66.7667 290.399C65.1322 290.399 63.4621 289.83 62.1119 288.658C59.1626 286.099 58.8073 281.585 61.4012 278.635L129.625 199.878C129.802 199.7 129.98 199.487 130.158 199.31L278.472 61.4846C281.35 58.819 285.828 58.9612 288.528 61.84C291.229 64.7187 291.051 69.1968 288.173 71.8978L140.142 209.438L72.2032 287.911C70.7819 289.546 68.8276 290.364 66.8378 290.364L66.7667 290.399Z" fill="#D31A71"/>
<path d="M134.954 231.225C149.673 231.225 161.604 219.291 161.604 204.569C161.604 189.848 149.673 177.914 134.954 177.914C120.236 177.914 108.305 189.848 108.305 204.569C108.305 219.291 120.236 231.225 134.954 231.225Z" fill="#D31A71"/>
<path d="M66.7665 309.946C81.4847 309.946 93.4162 298.012 93.4162 283.291C93.4162 268.57 81.4847 256.636 66.7665 256.636C52.0482 256.636 40.1167 268.57 40.1167 283.291C40.1167 298.012 52.0482 309.946 66.7665 309.946Z" fill="#D31A71"/>
<path d="M283.269 93.3997C297.987 93.3997 309.919 81.4658 309.919 66.7445C309.919 52.0233 297.987 40.0894 283.269 40.0894C268.551 40.0894 256.619 52.0233 256.619 66.7445C256.619 81.4658 268.551 93.3997 283.269 93.3997Z" fill="#D31A71"/>
<path d="M134.954 53.3103C149.673 53.3103 161.604 41.3764 161.604 26.6552C161.604 11.9339 149.673 0 134.954 0C120.236 0 108.305 11.9339 108.305 26.6552C108.305 41.3764 120.236 53.3103 134.954 53.3103Z" fill="#D31A71"/>
<path d="M26.6497 161.495C41.368 161.495 53.2995 149.561 53.2995 134.84C53.2995 120.118 41.368 108.184 26.6497 108.184C11.9315 108.184 0 120.118 0 134.84C0 149.561 11.9315 161.495 26.6497 161.495Z" fill="#D31A71"/>
<path d="M323.35 241.745C338.069 241.745 350 229.811 350 215.089C350 200.368 338.069 188.434 323.35 188.434C308.632 188.434 296.701 200.368 296.701 215.089C296.701 229.811 308.632 241.745 323.35 241.745Z" fill="#D31A71"/>
<path d="M215.117 350C229.835 350 241.766 338.066 241.766 323.345C241.766 308.624 229.835 296.69 215.117 296.69C200.398 296.69 188.467 308.624 188.467 323.345C188.467 338.066 200.398 350 215.117 350Z" fill="#D31A71"/>
<path d="M215.117 330.453C212.843 330.453 210.604 329.351 209.218 327.325L129.909 209.758L22.8123 140.846C19.5078 138.713 18.5484 134.306 20.6804 131.037C22.8123 127.732 27.1829 126.772 30.4875 128.904L138.792 198.599C139.609 199.132 140.284 199.807 140.853 200.589L220.98 319.364C223.183 322.634 222.33 327.041 219.061 329.244C217.853 330.062 216.467 330.453 215.081 330.453H215.117Z" fill="#D31A71"/>
</g>
<defs>
<clipPath id="clip0_53_67">
<rect width="350" height="350" fill="white"/>
</clipPath>
</defs>
</svg>
